HIERARCHY
ROOT Hips
{
	OFFSET 193.743393 91.357132 495.993408
	CHANNELS 6 Xposition Yposition Zposition Zrotation Yrotation Xrotation 
	JOINT LeftUpLeg
	{
		OFFSET 0.103457 1.857819 10.548500
		CHANNELS 3 Zrotation Yrotation Xrotation
		JOINT LeftLeg
		{
			OFFSET 43.500000 -0.000019 -0.000010
			CHANNELS 3 Zrotation Yrotation Xrotation
			JOINT LeftFoot
			{
				OFFSET 42.372196 0.000008 0.000000
				CHANNELS 3 Zrotation Yrotation Xrotation
				JOINT LeftToe
				{
					OFFSET 17.300003 0.000001 0.000006
					CHANNELS 3 Zrotation Yrotation Xrotation
					End Site
					{
						OFFSET 0.000000 0.000000 0.000000
					}
				}
			}
		}
	}
	JOINT RightUpLeg
	{
		OFFSET 0.103456 1.857821 -10.548498
		CHANNELS 3 Zrotation Yrotation Xrotation
		JOINT RightLeg
		{
			OFFSET 43.500046 -0.000031 0.000019
			CHANNELS 3 Zrotation Yrotation Xrotation
			JOINT RightFoot
			{
				OFFSET 42.372261 -0.000004 0.000021
				CHANNELS 3 Zrotation Yrotation Xrotation
				JOINT RightToe
				{
					OFFSET 17.300016 0.000003 0.000000
					CHANNELS 3 Zrotation Yrotation Xrotation
					End Site
					{
						OFFSET 0.000000 0.000000 0.000000
					}
				}
			}
		}
	}
	JOINT Spine
	{
		OFFSET 6.901967 -2.603733 -0.000002
		CHANNELS 3 Zrotation Yrotation Xrotation
		JOINT Spine1
		{
			OFFSET 12.588102 0.000004 -0.000004
			CHANNELS 3 Zrotation Yrotation Xrotation
			JOINT Spine2
			{
				OFFSET 12.343203 -0.000004 0.000000
				CHANNELS 3 Zrotation Yrotation Xrotation
				JOINT Neck
				{
					OFFSET 25.832895 -0.000011 0.000005
					CHANNELS 3 Zrotation Yrotation Xrotation
					JOINT Head
					{
						OFFSET 11.766605 0.000003 0.000008
						CHANNELS 3 Zrotation Yrotation Xrotation
						End Site
						{
							OFFSET 0.000000 0.000000 0.000000
						}
					}
				}
				JOINT LeftShoulder
				{
					OFFSET 19.745905 -1.480360 6.000111
					CHANNELS 3 Zrotation Yrotation Xrotation
					JOINT LeftArm
					{
						OFFSET 11.284124 0.000007 -0.000017
						CHANNELS 3 Zrotation Yrotation Xrotation
						JOINT LeftForeArm
						{
							OFFSET 33.000050 0.000003 0.000017
							CHANNELS 3 Zrotation Yrotation Xrotation
							JOINT LeftHand
							{
								OFFSET 25.200005 0.000010 0.000011
								CHANNELS 3 Zrotation Yrotation Xrotation
								End Site
								{
									OFFSET 0.000000 0.000000 0.000000
								}
							}
						}
					}
				}
				JOINT RightShoulder
				{
					OFFSET 19.746092 -1.480387 -6.000073
					CHANNELS 3 Zrotation Yrotation Xrotation
					JOINT RightArm
					{
						OFFSET 11.284132 -0.000045 -0.000015
						CHANNELS 3 Zrotation Yrotation Xrotation
						JOINT RightForeArm
						{
							OFFSET 33.000092 0.000031 0.000005
							CHANNELS 3 Zrotation Yrotation Xrotation
							JOINT RightHand
							{
								OFFSET 25.199797 0.000145 0.000419
								CHANNELS 3 Zrotation Yrotation Xrotation
								End Site
								{
									OFFSET 0.000000 0.000000 0.000000
								}
							}
						}
					}
				}
			}
		}
	}
}
MOTION
Frames: 8
Frame Time: 0.033333
-58.58027999999999 85.03974900000001 -1124.761962 90.21073204039132 -12.734673769927623 -11.311072679006926 171.854349 -6.130905999999995 178.111963 -79.23171100000002 6.781428000000009 5.583539999999999 56.190464 -8.887667999999996 -9.342340999999998 21.454558 0.003109000000003333 1.5999999999999837e-05 156.105135 -3.9687059999999925 -175.431701 -36.00546899999999 -2.1292499999999936 -6.1491549999999995 80.21909 6.5770040000000085 9.086045000000002 21.454549999999994 -0.003091999999999726 9.706282611373461e-20 8.091421999999998 2.1853380000000047 -0.3699890000000002 6.162519 4.387206000000003 -0.6239350000000002 5.843427000000002 4.383218000000009 -0.6504740000000001 4.263935000000001 14.117552000000002 10.776451000000002 -5.4773190000000005 -24.401669999999985 23.067144 -175.471999 -75.21801800000003 -6.031758999999997 -10.574237000000002 55.71715499999999 34.053212999999985 -34.835939 -14.149574000000005 1.303404999999999 8.972582 -1.1115709999999979 9.778244999999998 -169.934205 72.05120100000003 11.698570000000007 -5.643446999999992 -55.052376999999986 -37.46290500000001 -15.843840000000004 5.107869000000009 -0.3910960000000002 14.597527999999992 0.8471960000000047 -28.511543999999994 
-62.20397199999999 85.832024 -1125.5965569999998 90.00721503351036 -12.802574985725057 -7.272010119389951 163.7466 -6.278002000000004 178.779423 -84.55059800000001 5.822761000000008 2.1231030000000004 63.67967 -5.103247999999994 -8.274357 21.454567999999995 0.003107999999999379 1.799999999999987e-05 159.650413 -3.8683949999999907 -173.677886 -34.926452000000005 -2.9298920000000015 -4.878539 82.25374800000002 5.527653000000007 9.112237000000002 21.454555000000003 -0.003090999999995772 0.0 7.945003999999999 2.1663100000000073 -0.11033999999999998 5.879234 4.33543100000001 -0.11100600000000006 5.560141999999998 4.3345410000000015 -0.13724200000000006 3.628385000000001 14.598983000000008 9.881358 -5.2809110000000015 -24.313629 22.370355 -175.502899 -75.31627700000001 -6.001353999999994 -10.784372000000001 54.989006 34.99613099999999 -36.510946999999994 -14.003821000000002 1.333095999999999 8.637159999999998 -0.6722699999999902 10.316206999999999 -170.803101 72.22132100000002 10.804433000000003 -9.959511000000001 -53.05991100000001 -34.98913 -16.874361 5.576925 -0.43123100000000003 15.052894999999996 -0.2483020000000006 -29.481726 
-66.083359 86.37336700000002 -1126.213378 89.427893914514 -12.746151620521198 -3.66898253472166 156.707147 -5.636091999999998 177.894531 -85.916533 5.3128850000000085 -1.4784719999999996 68.94795899999998 -0.9917649999999963 -5.339497000000001 21.454565000000002 0.003107999999999379 1.700000000000009e-05 163.641921 -3.7648009999999967 -173.58289200000002 -33.87975 -2.6323949999999936 -3.124060000000001 84.282472 4.145587000000003 9.262761 21.45455 -0.003090999999995772 0.0 7.866308000000003 2.0831930000000027 0.193888 5.732414 4.154308999999999 0.4905840000000001 5.413423 4.157059000000007 0.46544 3.4922449999999996 14.524939 9.314996999999998 -5.240421 -24.028592 21.716313 -175.185719 -75.17086999999997 -6.324460000000004 -10.931240000000004 53.946193000000015 36.068935 -37.904571999999995 -13.986121 1.3659480000000004 7.924640999999999 -0.6650199999999995 10.701209 -171.765679 72.57446900000001 9.815559 -13.900340000000003 -50.79933000000002 -30.698493999999993 -17.707873 6.188318 -0.4796269999999997 15.011078999999999 -0.31919999999999743 -32.550247000000006 
-70.19901300000001 86.584511 -1126.6814570000001 88.65062662666236 -12.903944531074055 -0.29202888869661764 150.914532 -5.005601000000004 176.483236 -84.02745999999999 5.120760000000002 -3.8501169999999996 74.17569 1.8247080000000042 -2.492313 21.454567000000004 0.003109000000003333 1.8000000000000017e-05 167.983448 -3.6636970000000013 -173.008459 -32.804996 -1.7549029999999908 -1.8994669999999991 86.42412500000002 3.082079000000001 9.283346 21.454553 -0.003091999999999726 9.706282611373461e-20 7.8131 2.0518499999999995 0.48190099999999997 5.635847 4.077961000000005 1.0633499999999998 5.316936 4.084170000000001 1.038663 3.8887260000000006 14.135631 9.064211 -5.443273000000001 -23.722260999999996 21.251796 -174.41547800000004 -75.09105900000002 -7.112558000000004 -10.894350999999999 53.37939300000001 36.61936300000001 -38.682551 -14.156137000000003 1.3965649999999994 7.347292999999999 -0.9811499999999952 11.033908999999998 -172.807584 73.41835199999998 8.750408999999998 -17.425845 -48.576667000000015 -25.553964000000015 -18.210592 6.815389999999999 -0.5260680000000003 15.028458000000004 0.898618000000001 -34.52247700000001 
-74.472298 86.45674899999999 -1127.0972590000001 87.94670913538701 -13.436713542133697 2.920005803205828 146.06471599999998 -4.783095999999998 175.211113 -79.3123 4.95400900000001 -5.4448490000000005 79.409473 3.795183000000004 0.4713379999999998 21.45456 0.0031070000000081475 1.700000000000001e-05 172.431636 -3.962495000000001 -170.808975 -31.480075999999997 -1.1395019999999956 -1.6516369999999998 88.531853 2.674290000000003 9.144137000000002 21.454549999999994 -0.003091999999999726 9.706282611373461e-20 7.724273000000002 2.088934000000006 0.7424580000000001 5.46791 4.140703000000003 1.5833080000000004 5.149039 4.1500510000000075 1.5582360000000002 4.34783 14.017139000000004 8.902727999999996 -5.622134000000001 -23.642225 21.033132 -173.6623 -75.25604200000002 -7.8856630000000045 -10.639449999999986 53.37135100000004 36.42477000000002 -39.033056 -14.376601999999995 1.4198790000000008 7.21704 -1.417915999999992 11.157846999999999 -173.605596 74.33647300000008 7.939249000000014 -20.626231999999998 -45.941133000000015 -20.663687000000003 -18.611519 7.378657999999998 -0.5672939999999997 15.238458000000003 2.7370190000000014 -34.338930000000005 
-78.894371 86.072479 -1127.4607839999999 87.36488736018575 -14.156209604344873 5.696982534327274 142.181357 -5.285402000000001 173.783836 -72.05431599999999 4.4906239999999995 -6.071498 81.8438 4.528672000000001 1.7913919999999997 21.454560000000004 0.003109000000003333 1.7000000000000074e-05 176.986321 -4.785598999999997 -167.875395 -29.685401999999996 -0.9348229999999926 -2.050382 90.40748500000001 2.7417270000000045 9.000824 21.454550999999995 -0.003091999999999726 9.706282611373461e-20 7.606091 2.1320539999999997 1.0068999999999997 5.241722000000001 4.216663000000003 2.110203 4.922906000000001 4.229190000000007 2.084664 4.377357 14.399562000000007 8.710591999999998 -5.455508999999999 -23.815961 20.999249 -173.294603 -75.54831900000002 -8.264699999999998 -10.245461999999995 53.56767399999999 35.736325 -39.153943000000005 -14.450514999999992 1.4278020000000005 7.371047 -2.005953999999996 10.973237 -174.371082 74.86196700000002 7.159661 -23.342437999999998 -42.438653 -16.61919400000001 -19.156342999999993 7.902384000000004 -0.6074539999999995 15.240449999999996 4.531080999999998 -32.846366 
-83.40219899999997 85.52980000000001 -1127.6919550000002 86.82143726326892 -14.820203724630781 7.840904318847532 139.71591800000002 -6.153501 171.530352 -62.498369 4.073489000000006 -7.625737000000002 82.57897500000001 5.866471000000006 2.990086999999999 21.454553 0.003115000000001613 1.6999999999999898e-05 -178.228677 -5.949997 -165.651717 -27.234327000000004 -0.8225119999999962 -2.4799340000000005 91.84665999999999 2.908930000000003 9.080654999999998 21.454549999999994 -0.003091999999999726 9.706282611373461e-20 7.509696000000001 2.139085000000002 1.26854 5.0584859999999985 4.221122000000001 2.6305650000000003 4.739813 4.2367890000000035 2.605004 4.0398260000000015 15.011946000000005 8.579115000000002 -5.236956999999999 -24.02635999999999 21.145862999999995 -173.317293 -75.73151200000002 -8.243098999999999 -9.687820999999998 53.62447099999999 35.05348999999999 -39.120137 -14.374626999999997 1.4219830000000009 7.529139000000002 -2.552338000000002 10.667805999999997 -175.759783 75.07325900000005 5.7390150000000055 -25.504007999999995 -38.38543099999999 -13.261621000000002 -20.026222000000008 8.588475 -0.6620480000000003 14.803868000000001 6.031450000000002 -31.31938200000001 
-87.84767200000002 84.92153899999998 -1127.636474 86.3060730036377 -15.064719897853818 9.484946135425457 138.810495 -6.744003000000002 168.164981 -51.11728899999999 4.382281000000006 -8.122392 83.062593 6.31933300000001 3.590038999999999 21.454559999999997 0.003112000000002473 1.699999999999996e-05 -173.19672700000004 -6.987501999999993 -164.737237 -24.045201 -0.7157859999999974 -2.5079719999999996 92.688078 2.921701000000005 9.604268 21.454553 -0.003091999999999726 9.706282611373461e-20 7.4701900000000006 2.055420000000006 1.4656709999999997 4.984002000000001 4.046333999999998 3.0197950000000002 4.665511000000001 4.064352000000009 2.995295 3.6547840000000007 15.592711000000005 8.587531 -5.423294 -24.133398 21.503951000000004 -173.695276 -75.74933199999998 -7.856498999999997 -8.902055999999995 53.439315 34.80987500000001 -38.982799 -14.329193999999992 1.4155079999999987 7.663045 -2.6500710000000014 10.452111 -177.930827 75.28157299999998 3.5181949999999986 -27.204883 -34.58095699999999 -10.015527999999998 -21.529371000000005 9.655987000000007 -0.749744 14.068296000000004 7.391235000000009 -30.550757000000004 
